HIERARCHY
ROOT Hips
{
	OFFSET 0.000000 0.000000 0.000000
	CHANNELS 6 Xposition Yposition Zposition Zrotation Yrotation Xrotation 
	JOINT LHipJoint
	{
		OFFSET 0.000000 0.000000 0.000000
		CHANNELS 3 Zrotation Yrotation Xrotation
		JOINT LeftUpLeg
		{
			OFFSET 1.363060 -1.794630 0.839290
			CHANNELS 3 Zrotation Yrotation Xrotation
			JOINT LeftLeg
			{
				OFFSET 2.448110 -6.726130 0.000000
				CHANNELS 3 Zrotation Yrotation Xrotation
				JOINT LeftFoot
				{
					OFFSET 2.562200 -7.039590 0.000000
					CHANNELS 3 Zrotation Yrotation Xrotation
					JOINT LeftToeBase
					{
						OFFSET 0.157640 -0.433110 2.322550
						CHANNELS 3 Zrotation Yrotation Xrotation
						End Site
						{
							OFFSET 0.000000 0.000000 0.000000
						}
					}
				}
			}
		}
	}
	JOINT RHipJoint
	{
		OFFSET 0.000000 0.000000 0.000000
		CHANNELS 3 Zrotation Yrotation Xrotation
		JOINT RightUpLeg
		{
			OFFSET -1.305520 -1.794630 0.839290
			CHANNELS 3 Zrotation Yrotation Xrotation
			JOINT RightLeg
			{
				OFFSET -2.542530 -6.985550 0.000000
				CHANNELS 3 Zrotation Yrotation Xrotation
				JOINT RightFoot
				{
					OFFSET -2.568260 -7.056230 0.000000
					CHANNELS 3 Zrotation Yrotation Xrotation
					JOINT RightToeBase
					{
						OFFSET -0.164730 -0.452590 2.363150
						CHANNELS 3 Zrotation Yrotation Xrotation
						End Site
						{
							OFFSET 0.000000 0.000000 0.000000
						}
					}
				}
			}
		}
	}
}
MOTION
Frames: 11
Frame Time: 0.008333
3.072418 17.400102 -0.938017 140.288837 -41.537368 -142.191313 -1.299928 -4.496467 2.744574 25.182392 7.272633 -68.046902 -1.354930 -0.592986 -5.895306 0.907481 1.208942 38.429520 0.673500 -0.000001 -50.964500 18.442683 4.723898 -0.673533 -21.301193 3.503066 -11.855136 -2.143733 -2.043857 21.017174 -1.473801 -4.819878 -8.149541 -0.246200 0.000000 -57.522700
3.071243 17.416596 -0.950779 140.649475 -40.992804 -142.649107 -1.294269 -4.550026 2.472636 21.998906 8.354979 -67.658252 -1.801946 -0.644002 -6.789047 0.702299 -0.653128 37.982177 -0.605299 0.000000 -51.623600 18.420592 4.573207 -0.430486 -21.252804 3.991238 -11.758121 -2.185688 -1.975985 20.487214 -1.470527 -4.836818 -7.846819 -0.277601 0.000000 -57.013100
3.067437 17.431144 -0.962698 140.915745 -40.606940 -142.921715 -1.315739 -4.553295 2.261121 19.219321 9.131457 -67.512218 -2.159311 -0.671640 -6.970865 0.561257 -1.897636 37.512356 -1.437200 -0.000000 -52.509200 18.393870 4.436848 -0.196998 -21.201309 4.417348 -11.751110 -2.227146 -1.911426 20.037708 -1.487464 -4.950538 -7.600893 -0.310201 0.000000 -56.464000
3.060148 17.443597 -0.973039 141.142273 -40.388675 -143.077347 -1.382068 -4.511735 2.112585 17.059379 9.549115 -67.407359 -2.406063 -0.667740 -6.586870 0.490020 -2.416000 37.088395 -1.765500 -0.000001 -53.472100 18.347193 4.309340 0.012609 -21.085862 4.815496 -11.778876 -2.262036 -1.850636 19.652618 -1.527331 -5.175009 -7.421630 -0.344801 0.000000 -55.890600
3.048816 17.454233 -0.981673 141.367380 -40.334851 -143.178646 -1.495982 -4.440856 2.012388 15.461014 9.662949 -67.302488 -2.557929 -0.626622 -5.699667 0.470351 -2.464417 36.752824 -1.781301 -0.000000 -54.352000 18.269504 4.185721 0.190471 -20.865975 5.207360 -11.785294 -2.285086 -1.791720 19.311893 -1.589447 -5.506043 -7.325990 -0.379600 0.000000 -55.133100
3.033504 17.463031 -0.988538 141.602052 -40.439752 -143.259482 -1.656321 -4.349948 1.960824 14.515497 9.437666 -67.067449 -2.606145 -0.554231 -4.454900 0.501097 -2.088716 36.550810 -1.524599 0.000000 -54.954700 18.159053 4.067092 0.323602 -20.527803 5.576186 -11.729103 -2.293973 -1.735453 18.989336 -1.668736 -5.920210 -7.288702 -0.414600 0.000000 -54.409000
3.014512 17.470254 -0.994021 141.836559 -40.696375 -143.331219 -1.854910 -4.247243 1.955408 14.194454 8.856402 -66.651193 -2.557468 -0.461241 -2.978638 0.573475 -1.423088 36.512524 -1.088200 -0.000000 -55.165200 18.019810 3.957060 0.403834 -20.080489 5.886052 -11.585403 -2.285986 -1.681666 18.670281 -1.756853 -6.373773 -7.316099 -0.445100 0.000000 -53.556700
2.992868 17.476194 -0.998820 142.039809 -41.099625 -143.374876 -2.080008 -4.133353 2.005603 14.553113 7.824384 -65.949812 -2.405828 -0.367812 -1.473890 0.691451 -0.413329 36.684569 -0.431100 0.000000 -54.954900 17.865639 3.862521 0.421633 -19.557737 6.075647 -11.348052 -2.263211 -1.632271 18.329370 -1.844164 -6.821117 -7.367297 -0.471400 0.000001 -52.794000
2.969560 17.481192 -1.003627 142.179507 -41.638292 -143.368590 -2.316333 -4.008031 2.108886 15.448022 6.330498 -65.028881 -2.175032 -0.284639 -0.001418 0.840375 0.804592 37.021230 0.366600 0.000000 -54.318800 17.708309 3.787013 0.376115 -18.995941 6.091960 -11.027439 -2.226817 -1.587295 17.955887 -1.920591 -7.212917 -7.428543 -0.491200 0.000001 -52.077400
2.945648 17.485671 -1.009014 142.233256 -42.291895 -143.298333 -2.548696 -3.870935 2.253551 16.659733 4.426153 -64.009144 -1.900445 -0.214842 1.438660 1.000096 2.053917 37.440286 1.194400 -0.000001 -53.303800 17.558214 3.730020 0.273023 -18.430531 5.902460 -10.641719 -2.179314 -1.546302 17.540362 -1.977841 -7.511351 -7.475293 -0.505200 0.000000 -51.466800
2.922107 17.490105 -1.015597 142.192846 -43.027111 -143.160755 -2.764867 -3.723783 2.422863 17.960800 2.212898 -62.999559 -1.618366 -0.157507 2.856195 1.152707 3.193122 37.864107 1.957900 0.000001 -52.057401 17.424296 3.688355 0.124165 -17.893996 5.501796 -10.214278 -2.123493 -1.508638 17.080431 -2.009732 -7.688906 -7.488818 -0.514400 -0.000000 -50.984701
